<svg id="svg" xmlns="http://www.w3.org/2000/svg" xmlns:xlink="http://www.w3.org/1999/xlink" width="400" height="400" viewBox="0, 0, 400,400"><g id="svgg"><path id="path0" d="M42.685 22.372 C 40.131 24.926,40.097 26.865,41.829 71.154 C 42.750 94.703,43.291 102.329,44.134 103.615 C 44.739 104.539,66.785 123.117,93.125 144.900 C 119.465 166.683,141.110 184.760,141.226 185.072 C 141.431 185.624,98.717 237.692,97.732 238.090 C 97.461 238.200,93.554 233.531,89.049 227.713 C 76.734 211.808,75.960 211.796,60.654 227.266 C 47.974 240.081,48.153 237.992,57.893 259.463 C 61.716 267.890,64.844 275.091,64.844 275.466 C 64.844 275.841,50.254 290.752,32.422 308.603 L 0.000 341.059 -0.000 344.899 L -0.000 348.739 15.404 364.213 L 30.808 379.688 34.718 379.688 L 38.629 379.688 71.084 347.266 C 88.935 329.434,103.847 314.844,104.222 314.844 C 104.596 314.844,111.875 318.008,120.397 321.875 C 141.485 331.445,139.720 331.601,152.421 319.034 C 167.891 303.727,167.879 302.954,151.974 290.638 C 146.157 286.134,141.487 282.226,141.597 281.953 C 141.856 281.312,199.484 233.618,200.000 233.618 C 200.516 233.618,258.144 281.312,258.403 281.953 C 258.513 282.226,253.843 286.134,248.026 290.638 C 232.121 302.954,232.109 303.727,247.579 319.034 C 260.280 331.601,258.515 331.445,279.603 321.875 C 297.801 313.617,295.701 313.972,300.033 318.422 C 306.286 324.846,310.632 325.866,315.027 321.939 C 318.737 318.624,318.695 313.739,314.923 309.848 L 312.268 307.108 317.395 304.659 C 322.242 302.344,322.657 301.928,324.984 297.058 L 327.445 291.906 353.952 318.405 L 380.459 344.904 372.891 352.500 L 365.323 360.097 361.224 356.220 C 354.890 350.230,347.226 351.279,345.880 358.319 C 344.671 364.644,358.329 379.687,365.280 379.688 L 369.052 379.688 384.526 364.284 L 400.000 348.880 400.000 344.969 L 400.000 341.059 367.578 308.603 C 349.746 290.752,335.156 275.841,335.156 275.466 C 335.156 275.091,338.320 267.812,342.188 259.290 C 351.757 238.202,351.914 239.967,339.346 227.266 C 324.040 211.796,323.266 211.808,310.951 227.713 C 306.446 233.531,302.539 238.200,302.268 238.090 C 301.283 237.692,258.569 185.624,258.774 185.072 C 258.890 184.760,280.535 166.683,306.875 144.900 C 333.215 123.117,355.261 104.539,355.866 103.615 C 356.955 101.953,359.375 52.834,359.375 32.402 C 359.375 18.706,362.614 19.401,308.614 21.513 C 273.235 22.897,277.030 21.828,267.703 33.038 C 257.473 45.332,256.647 47.566,260.594 52.257 C 265.261 57.804,269.716 56.362,278.065 46.602 C 285.574 37.823,282.838 38.552,310.938 37.842 L 330.078 37.358 287.800 79.812 C 237.222 130.601,239.383 127.821,245.625 134.062 C 251.867 140.305,249.088 142.465,299.871 91.887 L 342.320 49.609 341.772 70.081 C 341.470 81.340,340.990 91.711,340.704 93.127 C 340.247 95.394,330.858 103.422,262.475 160.017 C 219.735 195.390,171.898 234.982,156.172 247.999 L 127.578 271.666 122.188 267.505 C 119.223 265.216,114.792 260.782,112.342 257.652 L 107.887 251.960 109.696 250.004 C 111.335 248.231,216.124 121.623,229.527 105.222 C 237.645 95.288,236.740 87.500,227.468 87.500 C 222.663 87.500,222.483 87.653,211.236 101.269 C 205.424 108.306,200.369 114.063,200.003 114.063 C 199.636 114.063,182.750 94.008,162.478 69.496 C 142.205 44.984,124.860 24.432,123.933 23.825 C 122.640 22.978,115.068 22.440,91.466 21.516 C 47.178 19.784,45.239 19.818,42.685 22.372 M115.418 39.325 C 115.949 39.653,132.269 59.152,151.684 82.656 C 171.100 106.160,187.475 125.970,188.072 126.677 C 189.069 127.858,154.267 171.875,152.336 171.875 C 152.065 171.875,131.132 154.736,105.817 133.789 C 61.366 97.007,59.773 95.596,59.279 92.578 C 58.998 90.859,58.522 80.488,58.221 69.531 L 57.676 49.609 100.127 91.887 C 150.912 142.465,148.133 140.305,154.375 134.062 C 160.622 127.815,162.796 130.604,112.006 79.688 L 69.534 37.109 91.994 37.919 C 104.346 38.364,114.887 38.997,115.418 39.325 M241.346 65.565 C 235.227 71.684,241.380 81.622,249.607 78.907 C 253.227 77.712,254.688 75.437,254.688 70.989 C 254.688 63.864,246.412 60.499,241.346 65.565 M268.968 224.301 L 291.990 252.117 287.597 257.730 C 285.180 260.817,280.776 265.217,277.809 267.508 L 272.414 271.672 244.996 249.023 C 229.916 236.566,216.623 225.450,215.455 224.320 L 213.333 222.266 229.127 209.201 C 237.814 202.016,245.152 196.215,245.434 196.311 C 245.716 196.406,256.306 209.002,268.968 224.301 M89.828 255.839 L 104.728 274.960 123.931 289.924 L 143.135 304.889 139.983 308.040 L 136.832 311.192 113.924 300.796 C 101.324 295.078,90.637 290.011,90.173 289.536 C 89.710 289.061,84.652 278.365,78.934 265.767 L 68.537 242.862 71.536 239.791 C 73.186 238.101,74.624 236.719,74.732 236.719 C 74.840 236.719,81.633 245.323,89.828 255.839 M321.117 265.761 C 315.406 278.362,310.341 289.066,309.859 289.547 C 309.378 290.028,298.674 295.094,286.073 300.804 L 263.162 311.186 260.013 308.037 L 256.865 304.889 276.069 289.924 L 295.272 274.960 310.237 255.756 L 325.201 236.552 328.350 239.701 L 331.498 242.850 321.117 265.761 M75.084 297.199 C 77.336 301.914,77.782 302.356,82.629 304.671 L 87.781 307.132 61.283 333.639 L 34.784 360.147 27.152 352.544 L 19.521 344.941 45.889 318.564 C 60.391 304.057,72.354 292.188,72.473 292.188 C 72.592 292.188,73.767 294.443,75.084 297.199 M328.922 330.530 C 324.345 332.426,322.376 336.958,324.208 341.381 C 327.476 349.269,339.844 346.875,339.844 338.354 C 339.844 332.627,333.988 328.431,328.922 330.530 " stroke="none" fill="#000000" fill-rule="evenodd"></path></g></svg>